<svg xmlns="http://www.w3.org/2000/svg" xmlns:xlink="http://www.w3.org/1999/xlink" width="1080" zoomAndPan="magnify" viewBox="0 0 810 809.999993" height="1080" preserveAspectRatio="xMidYMid meet" version="1.0"><defs><g/><clipPath id="id1"><path d="M 139.492188 257.84375 L 413.242188 257.84375 L 413.242188 397.25 L 139.492188 397.25 Z M 139.492188 257.84375 " clip-rule="nonzero"/></clipPath></defs><g clip-path="url(#id1)"><path fill="#ccff82" d="M 141.640625 397.125 C 142.824219 397.125 143.789062 396.164062 143.789062 394.976562 C 143.789062 321.632812 203.144531 262.175781 276.367188 262.175781 C 349.589844 262.175781 408.949219 321.632812 408.949219 394.976562 C 408.949219 396.164062 409.910156 397.125 411.097656 397.125 C 412.28125 397.125 413.242188 396.164062 413.242188 394.976562 C 413.242188 319.253906 351.960938 257.875 276.367188 257.875 C 200.773438 257.875 139.492188 319.253906 139.492188 394.976562 C 139.492188 396.164062 140.453125 397.125 141.640625 397.125 Z M 141.640625 397.125 " fill-opacity="1" fill-rule="evenodd"/></g><g fill="#000000" fill-opacity="1"><g transform="translate(31.47124, 469.255185)"><g><path d="M 6.5625 0 L 6.5625 -52.21875 L 17.90625 -52.21875 L 45.28125 -14.921875 L 42.828125 -15.296875 C 42.578125 -16.929688 42.375 -18.492188 42.21875 -19.984375 C 42.070312 -21.484375 41.9375 -22.953125 41.8125 -24.390625 C 41.6875 -25.835938 41.585938 -27.304688 41.515625 -28.796875 C 41.441406 -30.285156 41.390625 -31.898438 41.359375 -33.640625 C 41.335938 -35.390625 41.328125 -37.28125 41.328125 -39.3125 L 41.328125 -52.21875 L 53.640625 -52.21875 L 53.640625 0 L 42.15625 0 L 13.578125 -38.5 L 17.390625 -37.96875 C 17.628906 -35.582031 17.835938 -33.554688 18.015625 -31.890625 C 18.191406 -30.222656 18.34375 -28.742188 18.46875 -27.453125 C 18.59375 -26.160156 18.675781 -24.988281 18.71875 -23.9375 C 18.769531 -22.894531 18.804688 -21.863281 18.828125 -20.84375 C 18.859375 -19.832031 18.875 -18.703125 18.875 -17.453125 L 18.875 0 Z M 6.5625 0 "/></g></g></g><g fill="#000000" fill-opacity="1"><g transform="translate(91.676515, 469.255185)"><g><path d="M 6.5625 0 L 6.5625 -52.21875 L 42.96875 -52.21875 L 42.96875 -41.40625 L 18.875 -41.40625 L 18.875 -10.8125 L 43.71875 -10.8125 L 43.71875 0 Z M 12.53125 -21.40625 L 12.53125 -31.703125 L 39.625 -31.703125 L 39.625 -21.40625 Z M 12.53125 -21.40625 "/></g></g></g><g fill="#000000" fill-opacity="1"><g transform="translate(139.795977, 469.255185)"><g><path d="M 28.578125 0.453125 C 24.242188 0.453125 20.382812 -0.425781 17 -2.1875 C 13.625 -3.957031 10.976562 -6.382812 9.0625 -9.46875 C 7.144531 -12.550781 6.1875 -16.082031 6.1875 -20.0625 L 6.1875 -52.21875 L 19.03125 -52.21875 L 19.03125 -20.734375 C 19.03125 -18.847656 19.453125 -17.144531 20.296875 -15.625 C 21.140625 -14.113281 22.28125 -12.921875 23.71875 -12.046875 C 25.164062 -11.179688 26.785156 -10.75 28.578125 -10.75 C 30.460938 -10.75 32.140625 -11.179688 33.609375 -12.046875 C 35.078125 -12.921875 36.257812 -14.113281 37.15625 -15.625 C 38.050781 -17.144531 38.5 -18.847656 38.5 -20.734375 L 38.5 -52.21875 L 50.890625 -52.21875 L 50.890625 -20.0625 C 50.890625 -16.082031 49.929688 -12.550781 48.015625 -9.46875 C 46.097656 -6.382812 43.445312 -3.957031 40.0625 -2.1875 C 36.675781 -0.425781 32.847656 0.453125 28.578125 0.453125 Z M 28.578125 0.453125 "/></g></g></g><g fill="#000000" fill-opacity="1"><g transform="translate(196.867898, 469.255185)"><g><path d="M 6.5625 0 L 6.5625 -52.21875 L 42.96875 -52.21875 L 42.96875 -41.40625 L 18.875 -41.40625 L 18.875 -10.8125 L 43.71875 -10.8125 L 43.71875 0 Z M 12.53125 -21.40625 L 12.53125 -31.703125 L 39.625 -31.703125 L 39.625 -21.40625 Z M 12.53125 -21.40625 "/></g></g></g><g fill="#000000" fill-opacity="1"><g transform="translate(247.515166, 469.255185)"><g><path d="M 17.15625 0 L 17.15625 -46.5625 L 2.234375 -46.5625 L 2.234375 -52.21875 L 38.5 -52.21875 L 38.5 -46.5625 L 22.984375 -46.5625 L 22.984375 0 Z M 17.15625 0 "/></g></g></g><g fill="#000000" fill-opacity="1"><g transform="translate(288.174248, 469.255185)"><g><path d="M 7.6875 0 L 7.6875 -52.21875 L 28.125 -52.21875 C 31.15625 -52.21875 33.898438 -51.507812 36.359375 -50.09375 C 38.828125 -48.675781 40.78125 -46.75 42.21875 -44.3125 C 43.664062 -41.875 44.390625 -39.113281 44.390625 -36.03125 C 44.390625 -33.144531 43.691406 -30.535156 42.296875 -28.203125 C 40.910156 -25.867188 39.019531 -24.015625 36.625 -22.640625 C 34.238281 -21.273438 31.554688 -20.59375 28.578125 -20.59375 L 13.5 -20.59375 L 13.5 0 Z M 39.546875 0 L 26.40625 -22.984375 L 32 -24.921875 L 46.484375 0 Z M 13.5 -26.265625 L 29.09375 -26.265625 C 30.9375 -26.265625 32.550781 -26.6875 33.9375 -27.53125 C 35.332031 -28.375 36.425781 -29.53125 37.21875 -31 C 38.019531 -32.46875 38.421875 -34.144531 38.421875 -36.03125 C 38.421875 -38.070312 37.945312 -39.890625 37 -41.484375 C 36.0625 -43.078125 34.757812 -44.320312 33.09375 -45.21875 C 31.425781 -46.113281 29.519531 -46.5625 27.375 -46.5625 L 13.5 -46.5625 Z M 13.5 -26.265625 "/></g></g></g><g fill="#000000" fill-opacity="1"><g transform="translate(337.412769, 469.255185)"><g><path d="M 1.859375 0 L 21.859375 -52.21875 L 28.5 -52.21875 L 48.34375 0 L 42 0 L 29.25 -33.875 C 28.894531 -34.820312 28.503906 -35.925781 28.078125 -37.1875 C 27.660156 -38.457031 27.210938 -39.773438 26.734375 -41.140625 C 26.265625 -42.515625 25.816406 -43.847656 25.390625 -45.140625 C 24.972656 -46.429688 24.59375 -47.578125 24.25 -48.578125 L 25.734375 -48.578125 C 25.335938 -47.328125 24.925781 -46.066406 24.5 -44.796875 C 24.082031 -43.535156 23.648438 -42.269531 23.203125 -41 C 22.753906 -39.726562 22.304688 -38.46875 21.859375 -37.21875 C 21.410156 -35.976562 20.960938 -34.738281 20.515625 -33.5 L 7.828125 0 Z M 10.375 -14.40625 L 12.53125 -20.0625 L 37.234375 -20.0625 L 39.625 -14.40625 Z M 10.375 -14.40625 "/></g></g></g><g fill="#000000" fill-opacity="1"><g transform="translate(387.621139, 469.255185)"><g><path d="M 7.6875 0 L 7.6875 -52.21875 L 27.375 -52.21875 C 30.957031 -52.21875 34.226562 -51.582031 37.1875 -50.3125 C 40.144531 -49.050781 42.71875 -47.25 44.90625 -44.90625 C 47.101562 -42.570312 48.796875 -39.8125 49.984375 -36.625 C 51.179688 -33.445312 51.78125 -29.941406 51.78125 -26.109375 C 51.78125 -22.285156 51.179688 -18.769531 49.984375 -15.5625 C 48.796875 -12.351562 47.117188 -9.59375 44.953125 -7.28125 C 42.785156 -4.96875 40.207031 -3.175781 37.21875 -1.90625 C 34.238281 -0.632812 30.957031 0 27.375 0 Z M 13.5 -4.625 L 12.828125 -5.671875 L 27.015625 -5.671875 C 29.742188 -5.671875 32.265625 -6.15625 34.578125 -7.125 C 36.890625 -8.09375 38.878906 -9.484375 40.546875 -11.296875 C 42.210938 -13.117188 43.503906 -15.269531 44.421875 -17.75 C 45.347656 -20.238281 45.8125 -23.023438 45.8125 -26.109375 C 45.8125 -29.191406 45.347656 -31.976562 44.421875 -34.46875 C 43.503906 -36.957031 42.195312 -39.109375 40.5 -40.921875 C 38.8125 -42.734375 36.820312 -44.125 34.53125 -45.09375 C 32.25 -46.070312 29.742188 -46.5625 27.015625 -46.5625 L 12.609375 -46.5625 L 13.5 -47.453125 Z M 13.5 -4.625 "/></g></g></g><g fill="#000000" fill-opacity="1"><g transform="translate(443.05177, 469.255185)"><g><path d="M 5.21875 0 L 5.21875 -5.515625 L 13.65625 -5.515625 L 13.65625 -46.703125 L 5.21875 -46.703125 L 5.21875 -52.21875 L 27.90625 -52.21875 L 27.90625 -46.703125 L 19.46875 -46.703125 L 19.46875 -5.515625 L 27.90625 -5.515625 L 27.90625 0 Z M 5.21875 0 "/></g></g></g><g fill="#000000" fill-opacity="1"><g transform="translate(476.175856, 469.255185)"><g><path d="M 17.15625 0 L 17.15625 -46.5625 L 2.234375 -46.5625 L 2.234375 -52.21875 L 38.5 -52.21875 L 38.5 -46.5625 L 22.984375 -46.5625 L 22.984375 0 Z M 17.15625 0 "/></g></g></g><g fill="#000000" fill-opacity="1"><g transform="translate(516.834938, 469.255185)"><g><path d="M 5.21875 0 L 5.21875 -5.515625 L 13.65625 -5.515625 L 13.65625 -46.703125 L 5.21875 -46.703125 L 5.21875 -52.21875 L 27.90625 -52.21875 L 27.90625 -46.703125 L 19.46875 -46.703125 L 19.46875 -5.515625 L 27.90625 -5.515625 L 27.90625 0 Z M 5.21875 0 "/></g></g></g><g fill="#000000" fill-opacity="1"><g transform="translate(549.959041, 469.255185)"><g><path d="M 29.25 0.75 C 25.5625 0.75 22.164062 0.09375 19.0625 -1.21875 C 15.957031 -2.539062 13.242188 -4.394531 10.921875 -6.78125 C 8.609375 -9.175781 6.816406 -12 5.546875 -15.25 C 4.285156 -18.507812 3.65625 -22.082031 3.65625 -25.96875 C 3.65625 -29.84375 4.285156 -33.410156 5.546875 -36.671875 C 6.816406 -39.929688 8.609375 -42.765625 10.921875 -45.171875 C 13.242188 -47.585938 15.957031 -49.453125 19.0625 -50.765625 C 22.164062 -52.085938 25.5625 -52.75 29.25 -52.75 C 32.976562 -52.75 36.394531 -52.085938 39.5 -50.765625 C 42.613281 -49.453125 45.328125 -47.585938 47.640625 -45.171875 C 49.953125 -42.765625 51.738281 -39.929688 53 -36.671875 C 54.269531 -33.410156 54.90625 -29.84375 54.90625 -25.96875 C 54.90625 -22.132812 54.269531 -18.585938 53 -15.328125 C 51.738281 -12.066406 49.953125 -9.226562 47.640625 -6.8125 C 45.328125 -4.40625 42.613281 -2.539062 39.5 -1.21875 C 36.394531 0.09375 32.976562 0.75 29.25 0.75 Z M 29.25 -5 C 32.082031 -5 34.703125 -5.507812 37.109375 -6.53125 C 39.523438 -7.550781 41.601562 -9.003906 43.34375 -10.890625 C 45.082031 -12.785156 46.4375 -15.007812 47.40625 -17.5625 C 48.382812 -20.125 48.875 -22.925781 48.875 -25.96875 C 48.875 -29.050781 48.382812 -31.875 47.40625 -34.4375 C 46.4375 -37 45.082031 -39.222656 43.34375 -41.109375 C 41.601562 -42.992188 39.523438 -44.457031 37.109375 -45.5 C 34.703125 -46.550781 32.082031 -47.078125 29.25 -47.078125 C 26.414062 -47.078125 23.789062 -46.550781 21.375 -45.5 C 18.957031 -44.457031 16.878906 -42.992188 15.140625 -41.109375 C 13.398438 -39.222656 12.054688 -37 11.109375 -34.4375 C 10.171875 -31.875 9.703125 -29.050781 9.703125 -25.96875 C 9.703125 -22.925781 10.171875 -20.125 11.109375 -17.5625 C 12.054688 -15.007812 13.398438 -12.785156 15.140625 -10.890625 C 16.878906 -9.003906 18.957031 -7.550781 21.375 -6.53125 C 23.789062 -5.507812 26.414062 -5 29.25 -5 Z M 29.25 -5 "/></g></g></g><g fill="#000000" fill-opacity="1"><g transform="translate(608.523059, 469.255185)"><g><path d="M 7.6875 0 L 7.6875 -52.21875 L 12.984375 -52.21875 L 47.15625 -7.015625 L 46.109375 -5.671875 C 45.960938 -6.460938 45.847656 -7.65625 45.765625 -9.25 C 45.691406 -10.84375 45.617188 -12.644531 45.546875 -14.65625 C 45.472656 -16.675781 45.410156 -18.78125 45.359375 -20.96875 C 45.304688 -23.15625 45.269531 -25.289062 45.25 -27.375 C 45.226562 -29.46875 45.21875 -31.359375 45.21875 -33.046875 L 45.21875 -52.21875 L 51.03125 -52.21875 L 51.03125 0 L 45.59375 0 L 11.5625 -44.609375 L 12.453125 -46.1875 C 12.609375 -44.195312 12.75 -42.226562 12.875 -40.28125 C 13 -38.34375 13.097656 -36.476562 13.171875 -34.6875 C 13.242188 -32.894531 13.300781 -31.253906 13.34375 -29.765625 C 13.394531 -28.273438 13.429688 -27.003906 13.453125 -25.953125 C 13.484375 -24.910156 13.5 -24.164062 13.5 -23.71875 L 13.5 0 Z M 7.6875 0 "/></g></g></g><g fill="#000000" fill-opacity="1"><g transform="translate(667.236271, 469.255185)"><g><path d="M 7.6875 0 L 7.6875 -52.21875 L 39.3125 -52.21875 L 39.3125 -46.5625 L 13.5 -46.5625 L 13.5 -5.671875 L 39.171875 -5.671875 L 39.171875 0 Z M 10.375 -24.03125 L 10.375 -29.6875 L 35.140625 -29.6875 L 35.140625 -24.03125 Z M 10.375 -24.03125 "/></g></g></g><g fill="#000000" fill-opacity="1"><g transform="translate(711.923958, 469.255185)"><g><path d="M 7.6875 0 L 7.6875 -52.21875 L 12.984375 -52.21875 L 47.15625 -7.015625 L 46.109375 -5.671875 C 45.960938 -6.460938 45.847656 -7.65625 45.765625 -9.25 C 45.691406 -10.84375 45.617188 -12.644531 45.546875 -14.65625 C 45.472656 -16.675781 45.410156 -18.78125 45.359375 -20.96875 C 45.304688 -23.15625 45.269531 -25.289062 45.25 -27.375 C 45.226562 -29.46875 45.21875 -31.359375 45.21875 -33.046875 L 45.21875 -52.21875 L 51.03125 -52.21875 L 51.03125 0 L 45.59375 0 L 11.5625 -44.609375 L 12.453125 -46.1875 C 12.609375 -44.195312 12.75 -42.226562 12.875 -40.28125 C 13 -38.34375 13.097656 -36.476562 13.171875 -34.6875 C 13.242188 -32.894531 13.300781 -31.253906 13.34375 -29.765625 C 13.394531 -28.273438 13.429688 -27.003906 13.453125 -25.953125 C 13.484375 -24.910156 13.5 -24.164062 13.5 -23.71875 L 13.5 0 Z M 7.6875 0 "/></g></g></g></svg>