<svg xmlns="http://www.w3.org/2000/svg" xmlns:xlink="http://www.w3.org/1999/xlink" width="1080" zoomAndPan="magnify" viewBox="0 0 810 809.999993" height="1080" preserveAspectRatio="xMidYMid meet" version="1.0"><defs><g/><clipPath id="id1"><path d="M 132.238281 255.09375 L 411.238281 255.09375 L 411.238281 396.84375 L 132.238281 396.84375 Z M 132.238281 255.09375 " clip-rule="nonzero"/></clipPath></defs><g clip-path="url(#id1)"><path fill="#000000" d="M 134.429688 396.722656 C 135.636719 396.722656 136.617188 395.742188 136.617188 394.535156 C 136.617188 320.007812 197.113281 259.589844 271.738281 259.589844 C 346.367188 259.589844 406.863281 320.007812 406.863281 394.535156 C 406.863281 395.742188 407.84375 396.722656 409.050781 396.722656 C 410.261719 396.722656 411.238281 395.742188 411.238281 394.535156 C 411.238281 317.59375 348.785156 255.21875 271.738281 255.21875 C 194.695312 255.21875 132.238281 317.59375 132.238281 394.535156 C 132.238281 395.742188 133.21875 396.722656 134.429688 396.722656 Z M 134.429688 396.722656 " fill-opacity="1" fill-rule="evenodd"/></g><g fill="#000000" fill-opacity="1"><g transform="translate(22.396533, 470.072616)"><g><path d="M 6.671875 0 L 6.671875 -53.09375 L 18.203125 -53.09375 L 46.046875 -15.171875 L 43.546875 -15.546875 C 43.285156 -17.210938 43.078125 -18.804688 42.921875 -20.328125 C 42.773438 -21.847656 42.640625 -23.335938 42.515625 -24.796875 C 42.390625 -26.265625 42.289062 -27.757812 42.21875 -29.28125 C 42.144531 -30.800781 42.09375 -32.445312 42.0625 -34.21875 C 42.039062 -35.988281 42.03125 -37.910156 42.03125 -39.984375 L 42.03125 -53.09375 L 54.546875 -53.09375 L 54.546875 0 L 42.859375 0 L 13.8125 -39.140625 L 17.671875 -38.609375 C 17.921875 -36.179688 18.132812 -34.117188 18.3125 -32.421875 C 18.488281 -30.734375 18.640625 -29.226562 18.765625 -27.90625 C 18.898438 -26.59375 18.988281 -25.40625 19.03125 -24.34375 C 19.082031 -23.28125 19.117188 -22.226562 19.140625 -21.1875 C 19.171875 -20.15625 19.1875 -19.007812 19.1875 -17.75 L 19.1875 0 Z M 6.671875 0 "/></g></g></g><g fill="#000000" fill-opacity="1"><g transform="translate(83.617143, 470.072616)"><g><path d="M 6.671875 0 L 6.671875 -53.09375 L 43.6875 -53.09375 L 43.6875 -42.109375 L 19.1875 -42.109375 L 19.1875 -11 L 44.453125 -11 L 44.453125 0 Z M 12.75 -21.765625 L 12.75 -32.234375 L 40.28125 -32.234375 L 40.28125 -21.765625 Z M 12.75 -21.765625 "/></g></g></g><g fill="#000000" fill-opacity="1"><g transform="translate(132.548117, 470.072616)"><g><path d="M 29.046875 0.453125 C 24.648438 0.453125 20.734375 -0.441406 17.296875 -2.234375 C 13.859375 -4.035156 11.164062 -6.503906 9.21875 -9.640625 C 7.269531 -12.773438 6.296875 -16.363281 6.296875 -20.40625 L 6.296875 -53.09375 L 19.34375 -53.09375 L 19.34375 -21.09375 C 19.34375 -19.164062 19.769531 -17.429688 20.625 -15.890625 C 21.488281 -14.347656 22.65625 -13.132812 24.125 -12.25 C 25.59375 -11.363281 27.234375 -10.921875 29.046875 -10.921875 C 30.972656 -10.921875 32.679688 -11.363281 34.171875 -12.25 C 35.660156 -13.132812 36.859375 -14.347656 37.765625 -15.890625 C 38.679688 -17.429688 39.140625 -19.164062 39.140625 -21.09375 L 39.140625 -53.09375 L 51.734375 -53.09375 L 51.734375 -20.40625 C 51.734375 -16.363281 50.757812 -12.773438 48.8125 -9.640625 C 46.863281 -6.503906 44.171875 -4.035156 40.734375 -2.234375 C 37.296875 -0.441406 33.398438 0.453125 29.046875 0.453125 Z M 29.046875 0.453125 "/></g></g></g><g fill="#000000" fill-opacity="1"><g transform="translate(190.58253, 470.072616)"><g><path d="M 6.671875 0 L 6.671875 -53.09375 L 43.6875 -53.09375 L 43.6875 -42.109375 L 19.1875 -42.109375 L 19.1875 -11 L 44.453125 -11 L 44.453125 0 Z M 12.75 -21.765625 L 12.75 -32.234375 L 40.28125 -32.234375 L 40.28125 -21.765625 Z M 12.75 -21.765625 "/></g></g></g><g fill="#000000" fill-opacity="1"><g transform="translate(242.083938, 470.072616)"><g><path d="M 17.453125 0 L 17.453125 -47.34375 L 2.28125 -47.34375 L 2.28125 -53.09375 L 39.140625 -53.09375 L 39.140625 -47.34375 L 23.359375 -47.34375 L 23.359375 0 Z M 17.453125 0 "/></g></g></g><g fill="#000000" fill-opacity="1"><g transform="translate(283.428716, 470.072616)"><g><path d="M 7.8125 0 L 7.8125 -53.09375 L 28.59375 -53.09375 C 31.675781 -53.09375 34.46875 -52.375 36.96875 -50.9375 C 39.476562 -49.5 41.46875 -47.539062 42.9375 -45.0625 C 44.40625 -42.582031 45.140625 -39.773438 45.140625 -36.640625 C 45.140625 -33.703125 44.429688 -31.046875 43.015625 -28.671875 C 41.597656 -26.296875 39.675781 -24.410156 37.25 -23.015625 C 34.820312 -21.628906 32.085938 -20.9375 29.046875 -20.9375 L 13.734375 -20.9375 L 13.734375 0 Z M 40.203125 0 L 26.859375 -23.359375 L 32.546875 -25.34375 L 47.265625 0 Z M 13.734375 -26.703125 L 29.578125 -26.703125 C 31.453125 -26.703125 33.097656 -27.128906 34.515625 -27.984375 C 35.929688 -28.847656 37.039062 -30.023438 37.84375 -31.515625 C 38.65625 -33.003906 39.0625 -34.710938 39.0625 -36.640625 C 39.0625 -38.710938 38.582031 -40.554688 37.625 -42.171875 C 36.664062 -43.796875 35.335938 -45.0625 33.640625 -45.96875 C 31.953125 -46.882812 30.019531 -47.34375 27.84375 -47.34375 L 13.734375 -47.34375 Z M 13.734375 -26.703125 "/></g></g></g><g fill="#000000" fill-opacity="1"><g transform="translate(333.497622, 470.072616)"><g><path d="M 1.890625 0 L 22.234375 -53.09375 L 28.984375 -53.09375 L 49.15625 0 L 42.703125 0 L 29.734375 -34.4375 C 29.378906 -35.394531 28.988281 -36.519531 28.5625 -37.8125 C 28.132812 -39.101562 27.675781 -40.441406 27.1875 -41.828125 C 26.707031 -43.222656 26.253906 -44.578125 25.828125 -45.890625 C 25.398438 -47.210938 25.007812 -48.378906 24.65625 -49.390625 L 26.171875 -49.390625 C 25.765625 -48.117188 25.347656 -46.835938 24.921875 -45.546875 C 24.492188 -44.265625 24.050781 -42.976562 23.59375 -41.6875 C 23.132812 -40.394531 22.675781 -39.113281 22.21875 -37.84375 C 21.769531 -36.582031 21.316406 -35.320312 20.859375 -34.0625 L 7.96875 0 Z M 10.546875 -14.640625 L 12.75 -20.40625 L 37.859375 -20.40625 L 40.28125 -14.640625 Z M 10.546875 -14.640625 "/></g></g></g><g fill="#000000" fill-opacity="1"><g transform="translate(384.552733, 470.072616)"><g><path d="M 7.8125 0 L 7.8125 -53.09375 L 27.84375 -53.09375 C 31.476562 -53.09375 34.800781 -52.445312 37.8125 -51.15625 C 40.820312 -49.875 43.4375 -48.046875 45.65625 -45.671875 C 47.882812 -43.296875 49.601562 -40.488281 50.8125 -37.25 C 52.03125 -34.007812 52.640625 -30.441406 52.640625 -26.546875 C 52.640625 -22.648438 52.03125 -19.070312 50.8125 -15.8125 C 49.601562 -12.550781 47.898438 -9.742188 45.703125 -7.390625 C 43.503906 -5.046875 40.882812 -3.226562 37.84375 -1.9375 C 34.8125 -0.644531 31.476562 0 27.84375 0 Z M 13.734375 -4.703125 L 13.046875 -5.765625 L 27.46875 -5.765625 C 30.25 -5.765625 32.8125 -6.253906 35.15625 -7.234375 C 37.507812 -8.222656 39.53125 -9.640625 41.21875 -11.484375 C 42.914062 -13.335938 44.234375 -15.523438 45.171875 -18.046875 C 46.109375 -20.578125 46.578125 -23.410156 46.578125 -26.546875 C 46.578125 -29.679688 46.109375 -32.515625 45.171875 -35.046875 C 44.234375 -37.578125 42.90625 -39.765625 41.1875 -41.609375 C 39.46875 -43.453125 37.445312 -44.867188 35.125 -45.859375 C 32.800781 -46.847656 30.25 -47.34375 27.46875 -47.34375 L 12.8125 -47.34375 L 13.734375 -48.25 Z M 13.734375 -4.703125 "/></g></g></g><g fill="#000000" fill-opacity="1"><g transform="translate(440.918176, 470.072616)"><g><path d="M 5.3125 0 L 5.3125 -5.609375 L 13.875 -5.609375 L 13.875 -47.484375 L 5.3125 -47.484375 L 5.3125 -53.09375 L 28.375 -53.09375 L 28.375 -47.484375 L 19.796875 -47.484375 L 19.796875 -5.609375 L 28.375 -5.609375 L 28.375 0 Z M 5.3125 0 "/></g></g></g><g fill="#000000" fill-opacity="1"><g transform="translate(474.600884, 470.072616)"><g><path d="M 17.453125 0 L 17.453125 -47.34375 L 2.28125 -47.34375 L 2.28125 -53.09375 L 39.140625 -53.09375 L 39.140625 -47.34375 L 23.359375 -47.34375 L 23.359375 0 Z M 17.453125 0 "/></g></g></g><g fill="#000000" fill-opacity="1"><g transform="translate(515.945662, 470.072616)"><g><path d="M 5.3125 0 L 5.3125 -5.609375 L 13.875 -5.609375 L 13.875 -47.484375 L 5.3125 -47.484375 L 5.3125 -53.09375 L 28.375 -53.09375 L 28.375 -47.484375 L 19.796875 -47.484375 L 19.796875 -5.609375 L 28.375 -5.609375 L 28.375 0 Z M 5.3125 0 "/></g></g></g><g fill="#000000" fill-opacity="1"><g transform="translate(549.628388, 470.072616)"><g><path d="M 29.734375 0.765625 C 25.992188 0.765625 22.539062 0.09375 19.375 -1.25 C 16.21875 -2.59375 13.460938 -4.476562 11.109375 -6.90625 C 8.753906 -9.332031 6.929688 -12.203125 5.640625 -15.515625 C 4.359375 -18.828125 3.71875 -22.457031 3.71875 -26.40625 C 3.71875 -30.34375 4.359375 -33.96875 5.640625 -37.28125 C 6.929688 -40.59375 8.753906 -43.472656 11.109375 -45.921875 C 13.460938 -48.378906 16.21875 -50.273438 19.375 -51.609375 C 22.539062 -52.953125 25.992188 -53.625 29.734375 -53.625 C 33.523438 -53.625 37 -52.953125 40.15625 -51.609375 C 43.320312 -50.273438 46.082031 -48.378906 48.4375 -45.921875 C 50.789062 -43.472656 52.609375 -40.59375 53.890625 -37.28125 C 55.179688 -33.96875 55.828125 -30.34375 55.828125 -26.40625 C 55.828125 -22.507812 55.179688 -18.90625 53.890625 -15.59375 C 52.609375 -12.28125 50.789062 -9.394531 48.4375 -6.9375 C 46.082031 -4.488281 43.320312 -2.59375 40.15625 -1.25 C 37 0.09375 33.523438 0.765625 29.734375 0.765625 Z M 29.734375 -5.078125 C 32.617188 -5.078125 35.285156 -5.59375 37.734375 -6.625 C 40.191406 -7.664062 42.304688 -9.144531 44.078125 -11.0625 C 45.847656 -12.988281 47.222656 -15.253906 48.203125 -17.859375 C 49.191406 -20.460938 49.6875 -23.3125 49.6875 -26.40625 C 49.6875 -29.539062 49.191406 -32.410156 48.203125 -35.015625 C 47.222656 -37.617188 45.847656 -39.878906 44.078125 -41.796875 C 42.304688 -43.722656 40.191406 -45.21875 37.734375 -46.28125 C 35.285156 -47.34375 32.617188 -47.875 29.734375 -47.875 C 26.847656 -47.875 24.175781 -47.34375 21.71875 -46.28125 C 19.269531 -45.21875 17.160156 -43.722656 15.390625 -41.796875 C 13.628906 -39.878906 12.265625 -37.617188 11.296875 -35.015625 C 10.335938 -32.410156 9.859375 -29.539062 9.859375 -26.40625 C 9.859375 -23.3125 10.335938 -20.460938 11.296875 -17.859375 C 12.265625 -15.253906 13.628906 -12.988281 15.390625 -11.0625 C 17.160156 -9.144531 19.269531 -7.664062 21.71875 -6.625 C 24.175781 -5.59375 26.847656 -5.078125 29.734375 -5.078125 Z M 29.734375 -5.078125 "/></g></g></g><g fill="#000000" fill-opacity="1"><g transform="translate(609.180061, 470.072616)"><g><path d="M 7.8125 0 L 7.8125 -53.09375 L 13.203125 -53.09375 L 47.9375 -7.125 L 46.875 -5.765625 C 46.726562 -6.578125 46.613281 -7.789062 46.53125 -9.40625 C 46.457031 -11.019531 46.382812 -12.851562 46.3125 -14.90625 C 46.238281 -16.957031 46.175781 -19.09375 46.125 -21.3125 C 46.070312 -23.539062 46.03125 -25.71875 46 -27.84375 C 45.976562 -29.96875 45.96875 -31.890625 45.96875 -33.609375 L 45.96875 -53.09375 L 51.890625 -53.09375 L 51.890625 0 L 46.34375 0 L 11.765625 -45.359375 L 12.671875 -46.953125 C 12.816406 -44.929688 12.953125 -42.929688 13.078125 -40.953125 C 13.210938 -38.984375 13.316406 -37.085938 13.390625 -35.265625 C 13.460938 -33.453125 13.523438 -31.785156 13.578125 -30.265625 C 13.628906 -28.742188 13.664062 -27.453125 13.6875 -26.390625 C 13.71875 -25.335938 13.734375 -24.582031 13.734375 -24.125 L 13.734375 0 Z M 7.8125 0 "/></g></g></g><g fill="#000000" fill-opacity="1"><g transform="translate(668.883445, 470.072616)"><g><path d="M 7.8125 0 L 7.8125 -53.09375 L 39.984375 -53.09375 L 39.984375 -47.34375 L 13.734375 -47.34375 L 13.734375 -5.765625 L 39.828125 -5.765625 L 39.828125 0 Z M 10.546875 -24.421875 L 10.546875 -30.1875 L 35.734375 -30.1875 L 35.734375 -24.421875 Z M 10.546875 -24.421875 "/></g></g></g><g fill="#000000" fill-opacity="1"><g transform="translate(714.324769, 470.072616)"><g><path d="M 7.8125 0 L 7.8125 -53.09375 L 13.203125 -53.09375 L 47.9375 -7.125 L 46.875 -5.765625 C 46.726562 -6.578125 46.613281 -7.789062 46.53125 -9.40625 C 46.457031 -11.019531 46.382812 -12.851562 46.3125 -14.90625 C 46.238281 -16.957031 46.175781 -19.09375 46.125 -21.3125 C 46.070312 -23.539062 46.03125 -25.71875 46 -27.84375 C 45.976562 -29.96875 45.96875 -31.890625 45.96875 -33.609375 L 45.96875 -53.09375 L 51.890625 -53.09375 L 51.890625 0 L 46.34375 0 L 11.765625 -45.359375 L 12.671875 -46.953125 C 12.816406 -44.929688 12.953125 -42.929688 13.078125 -40.953125 C 13.210938 -38.984375 13.316406 -37.085938 13.390625 -35.265625 C 13.460938 -33.453125 13.523438 -31.785156 13.578125 -30.265625 C 13.628906 -28.742188 13.664062 -27.453125 13.6875 -26.390625 C 13.71875 -25.335938 13.734375 -24.582031 13.734375 -24.125 L 13.734375 0 Z M 7.8125 0 "/></g></g></g></svg>